<mxfile host="Electron" modified="2023-08-06T14:01:05.555Z" agent="Mozilla/5.0 (Windows NT 10.0; Win64; x64) AppleWebKit/537.36 (KHTML, like Gecko) draw.io/21.6.5 Chrome/114.0.5735.243 Electron/25.3.1 Safari/537.36" etag="QjGKlf6DPLHsJFB_Nsn5" version="21.6.5" type="device">
  <diagram name="Page-1" id="Py4NLWSLowFZBIN8EJvF">
    <mxGraphModel dx="880" dy="511" grid="1" gridSize="10" guides="1" tooltips="1" connect="1" arrows="1" fold="1" page="1" pageScale="1" pageWidth="1169" pageHeight="827" math="0" shadow="0">
      <root>
        <mxCell id="0" />
        <mxCell id="1" parent="0" />
        <mxCell id="dr3tB5Dh-odTTxA3MecO-7" style="edgeStyle=orthogonalEdgeStyle;shape=connector;rounded=0;orthogonalLoop=1;jettySize=auto;html=1;exitX=0.5;exitY=1;exitDx=0;exitDy=0;labelBackgroundColor=default;strokeColor=default;fontFamily=Helvetica;fontSize=11;fontColor=default;endArrow=none;endFill=0;" edge="1" parent="1" source="dr3tB5Dh-odTTxA3MecO-1" target="dr3tB5Dh-odTTxA3MecO-5">
          <mxGeometry relative="1" as="geometry" />
        </mxCell>
        <mxCell id="dr3tB5Dh-odTTxA3MecO-9" value="*" style="edgeLabel;html=1;align=center;verticalAlign=middle;resizable=0;points=[];fontSize=11;fontFamily=Helvetica;fontColor=default;" vertex="1" connectable="0" parent="dr3tB5Dh-odTTxA3MecO-7">
          <mxGeometry x="-0.7111" y="3" relative="1" as="geometry">
            <mxPoint x="4" as="offset" />
          </mxGeometry>
        </mxCell>
        <mxCell id="dr3tB5Dh-odTTxA3MecO-10" value="0..1" style="edgeLabel;html=1;align=center;verticalAlign=middle;resizable=0;points=[];fontSize=11;fontFamily=Helvetica;fontColor=default;" vertex="1" connectable="0" parent="dr3tB5Dh-odTTxA3MecO-7">
          <mxGeometry x="0.7111" y="-1" relative="1" as="geometry">
            <mxPoint x="15" as="offset" />
          </mxGeometry>
        </mxCell>
        <mxCell id="dr3tB5Dh-odTTxA3MecO-1" value="accountNo" style="html=1;align=left;verticalAlign=middle;dashed=0;whiteSpace=wrap;fontFamily=Helvetica;fontSize=11;fontColor=default;" vertex="1" parent="1">
          <mxGeometry x="20" y="30" width="80" height="30" as="geometry" />
        </mxCell>
        <mxCell id="dr3tB5Dh-odTTxA3MecO-8" style="edgeStyle=orthogonalEdgeStyle;shape=connector;rounded=0;orthogonalLoop=1;jettySize=auto;html=1;exitX=0.5;exitY=1;exitDx=0;exitDy=0;labelBackgroundColor=default;strokeColor=default;fontFamily=Helvetica;fontSize=11;fontColor=default;endArrow=none;endFill=0;startArrow=diamondThin;startFill=1;startSize=12;" edge="1" parent="1" source="dr3tB5Dh-odTTxA3MecO-2" target="dr3tB5Dh-odTTxA3MecO-6">
          <mxGeometry relative="1" as="geometry" />
        </mxCell>
        <mxCell id="dr3tB5Dh-odTTxA3MecO-12" value="1" style="edgeLabel;html=1;align=center;verticalAlign=middle;resizable=0;points=[];fontSize=11;fontFamily=Helvetica;fontColor=default;" vertex="1" connectable="0" parent="dr3tB5Dh-odTTxA3MecO-8">
          <mxGeometry x="-0.575" relative="1" as="geometry">
            <mxPoint x="6" y="3" as="offset" />
          </mxGeometry>
        </mxCell>
        <mxCell id="dr3tB5Dh-odTTxA3MecO-13" value="1" style="edgeLabel;html=1;align=center;verticalAlign=middle;resizable=0;points=[];fontSize=11;fontFamily=Helvetica;fontColor=default;" vertex="1" connectable="0" parent="dr3tB5Dh-odTTxA3MecO-8">
          <mxGeometry x="0.475" y="2" relative="1" as="geometry">
            <mxPoint x="4" y="9" as="offset" />
          </mxGeometry>
        </mxCell>
        <mxCell id="dr3tB5Dh-odTTxA3MecO-2" value="rank : Rank&lt;br&gt;file: File" style="html=1;align=left;verticalAlign=middle;dashed=0;whiteSpace=wrap;fontFamily=Helvetica;fontSize=11;fontColor=default;" vertex="1" parent="1">
          <mxGeometry x="180" y="30" width="80" height="40" as="geometry" />
        </mxCell>
        <mxCell id="dr3tB5Dh-odTTxA3MecO-3" value="&lt;b&gt;Bank&lt;/b&gt;" style="whiteSpace=wrap;html=1;fontFamily=Helvetica;fontSize=11;fontColor=default;" vertex="1" parent="1">
          <mxGeometry width="120" height="30" as="geometry" />
        </mxCell>
        <mxCell id="dr3tB5Dh-odTTxA3MecO-4" value="&lt;b&gt;Chessboard&lt;/b&gt;" style="whiteSpace=wrap;html=1;fontFamily=Helvetica;fontSize=11;fontColor=default;" vertex="1" parent="1">
          <mxGeometry x="160" width="120" height="30" as="geometry" />
        </mxCell>
        <mxCell id="dr3tB5Dh-odTTxA3MecO-5" value="&lt;b&gt;Person&lt;/b&gt;" style="whiteSpace=wrap;html=1;fontFamily=Helvetica;fontSize=11;fontColor=default;" vertex="1" parent="1">
          <mxGeometry x="30" y="150" width="60" height="30" as="geometry" />
        </mxCell>
        <mxCell id="dr3tB5Dh-odTTxA3MecO-6" value="&lt;b&gt;Square&lt;/b&gt;" style="whiteSpace=wrap;html=1;fontFamily=Helvetica;fontSize=11;fontColor=default;" vertex="1" parent="1">
          <mxGeometry x="190" y="150" width="60" height="30" as="geometry" />
        </mxCell>
        <mxCell id="dr3tB5Dh-odTTxA3MecO-11" value="&lt;b&gt;Figure 11.37 Qualified associations&lt;/b&gt;" style="text;html=1;align=left;verticalAlign=middle;resizable=0;points=[];autosize=1;strokeColor=none;fillColor=none;fontSize=11;fontFamily=Helvetica;fontColor=default;" vertex="1" parent="1">
          <mxGeometry y="189" width="210" height="30" as="geometry" />
        </mxCell>
        <mxCell id="dr3tB5Dh-odTTxA3MecO-14" value="&lt;div&gt;The left diagram shows that given a Bank, a particular accountNo&lt;/div&gt;&lt;div&gt;identifies zero or one Person. The qualifier is the Property accountNo, and the qualified object is the Bank. The qualifier is&lt;/div&gt;&lt;div&gt;owned by the unnamed Property at the Bank end of the Association, i.e., the Property whose type is Bank.&lt;/div&gt;" style="text;html=1;align=left;verticalAlign=middle;resizable=0;points=[];autosize=1;strokeColor=none;fillColor=none;fontSize=11;fontFamily=Helvetica;fontColor=default;" vertex="1" parent="1">
          <mxGeometry y="218" width="610" height="50" as="geometry" />
        </mxCell>
        <mxCell id="dr3tB5Dh-odTTxA3MecO-15" value="&lt;div&gt;The right diagram shows how an individual Square on the Chessboard may be identified by rank and file; in this case&lt;/div&gt;&lt;div&gt;because the multiplicity is 1, the diagram shows that every possible value for Rank and File indicates an individual&lt;/div&gt;&lt;div&gt;Square. In this case the qualifiers are owned by the unnamed association end Property whose type is Chessboard, while&lt;/div&gt;&lt;div&gt;the opposite Property whose type is Square is marked with aggregation = composite.&lt;/div&gt;" style="text;html=1;align=left;verticalAlign=middle;resizable=0;points=[];autosize=1;strokeColor=none;fillColor=none;fontSize=11;fontFamily=Helvetica;fontColor=default;" vertex="1" parent="1">
          <mxGeometry y="280" width="610" height="70" as="geometry" />
        </mxCell>
      </root>
    </mxGraphModel>
  </diagram>
</mxfile>
